<svg width="37" height="32" viewBox="0 0 37 32" fill="none" xmlns="http://www.w3.org/2000/svg">
<path d="M3.44893 0H33.0899C34.0046 0 34.8819 0.366642 35.5287 1.01927C36.1755 1.67189 36.5388 2.55705 36.5388 3.48C36.5388 4.40295 36.1755 5.28811 35.5287 5.94073C34.8819 6.59336 34.0046 6.96 33.0899 6.96H3.44893C2.53422 6.96 1.65697 6.59336 1.01017 5.94073C0.363368 5.28811 1.02786e-07 4.40295 1.02786e-07 3.48C1.02786e-07 2.55705 0.363368 1.67189 1.01017 1.01927C1.65697 0.366642 2.53422 0 3.44893 0ZM3.44893 12.52H33.0899C33.5428 12.52 33.9913 12.61 34.4097 12.7849C34.8282 12.9598 35.2084 13.2161 35.5287 13.5393C35.8489 13.8624 36.103 14.246 36.2763 14.6683C36.4496 15.0905 36.5388 15.543 36.5388 16C36.5388 16.457 36.4496 16.9095 36.2763 17.3317C36.103 17.754 35.8489 18.1376 35.5287 18.4607C35.2084 18.7839 34.8282 19.0402 34.4097 19.2151C33.9913 19.39 33.5428 19.48 33.0899 19.48H3.44893C2.99601 19.48 2.54752 19.39 2.12908 19.2151C1.71064 19.0402 1.33043 18.7839 1.01017 18.4607C0.689905 18.1376 0.435859 17.754 0.262534 17.3317C0.0892092 16.9095 3.01053e-08 16.457 3.01053e-08 16C3.01053e-08 15.543 0.0892092 15.0905 0.262534 14.6683C0.435859 14.246 0.689905 13.8624 1.01017 13.5393C1.33043 13.2161 1.71064 12.9598 2.12908 12.7849C2.54752 12.61 2.99601 12.52 3.44893 12.52ZM3.44893 25.0413H33.0899C33.5428 25.0413 33.9913 25.1313 34.4097 25.3062C34.8282 25.4811 35.2084 25.7375 35.5287 26.0606C35.8489 26.3837 36.103 26.7674 36.2763 27.1896C36.4496 27.6118 36.5388 28.0643 36.5388 28.5213C36.5388 28.9783 36.4496 29.4309 36.2763 29.8531C36.103 30.2753 35.8489 30.6589 35.5287 30.9821C35.2084 31.3052 34.8282 31.5615 34.4097 31.7364C33.9913 31.9113 33.5428 32.0013 33.0899 32.0013H3.44893C2.99601 32.0013 2.54752 31.9113 2.12908 31.7364C1.71064 31.5615 1.33043 31.3052 1.01017 30.9821C0.689905 30.6589 0.435859 30.2753 0.262534 29.8531C0.0892092 29.4309 0 28.9783 0 28.5213C0 28.0643 0.0892092 27.6118 0.262534 27.1896C0.435859 26.7674 0.689905 26.3837 1.01017 26.0606C1.33043 25.7375 1.71064 25.4811 2.12908 25.3062C2.54752 25.1313 2.99601 25.0413 3.44893 25.0413Z" fill="#FCF9EF"/>
</svg>
