<svg width="45" height="45" viewBox="0 0 45 45" fill="none" xmlns="http://www.w3.org/2000/svg">
<path d="M29.7658 6.0741C32.0699 7.40415 34.0371 9.24642 35.5152 11.4584C36.9934 13.6704 37.9429 16.1928 38.2902 18.8304C38.6376 21.4681 38.3735 24.1503 37.5184 26.6695C36.6632 29.1888 35.24 31.4775 33.3588 33.3587C31.4776 35.2399 29.1889 36.6631 26.6696 37.5182C24.1504 38.3734 21.4682 38.6375 18.8305 38.2901C16.1929 37.9428 13.6705 36.9933 11.4585 35.5151C9.24655 34.037 7.40427 32.0697 6.07422 29.7657" stroke="#FCF9EF" stroke-width="2" stroke-linecap="round" stroke-linejoin="round"/>
<path d="M30.0188 6.32812C31.9267 9.63443 32.6905 13.4778 32.1919 17.2624C31.6932 21.047 29.9599 24.5614 27.2606 27.2606C24.5614 29.9599 21.047 31.6932 17.2624 32.1919C13.4778 32.6905 9.63443 31.9267 6.32812 30.0188M9.375 7.5V11.25M7.5 9.375H11.25M11.25 16.875V19.6875M9.84375 18.2812H12.6562M28.5938 13.125V15.9375M27.1875 14.5312H30M36.0938 5.15625V7.96875M34.6875 6.5625H37.5M7.03125 38.4375H9.84375M8.4375 37.0312V39.8438M37.0312 33.75H39.8438M38.4375 32.3438L38.4563 35.1562" stroke="#FCF9EF" stroke-width="2" stroke-linecap="round" stroke-linejoin="round"/>
</svg>
