<svg  viewBox="0 0 178 178" fill="none" xmlns="http://www.w3.org/2000/svg">
<path fill-rule="evenodd" clip-rule="evenodd" d="M96.4163 22.2499C96.4163 20.2829 95.6349 18.3964 94.244 17.0055C92.8532 15.6146 90.9667 14.8333 88.9997 14.8333C87.0327 14.8333 85.1462 15.6146 83.7553 17.0055C82.3644 18.3964 81.583 20.2829 81.583 22.2499V37.0833C81.583 39.0503 82.3644 40.9367 83.7553 42.3276C85.1462 43.7185 87.0327 44.4999 88.9997 44.4999C90.9667 44.4999 92.8532 43.7185 94.244 42.3276C95.6349 40.9367 96.4163 39.0503 96.4163 37.0833V22.2499ZM47.0436 36.5567C45.6385 35.2391 43.7759 34.5198 41.8499 34.5511C39.9239 34.5823 38.0857 35.3617 36.7241 36.7242C35.3625 38.0868 34.5845 39.9256 34.5546 41.8516C34.5247 43.7776 35.2452 45.6397 36.5638 47.0438L47.051 57.531C48.4498 58.882 50.3233 59.6296 52.2679 59.6127C54.2125 59.5958 56.0727 58.8158 57.4478 57.4407C58.8229 56.0655 59.6029 54.2054 59.6198 52.2607C59.6367 50.3161 58.8892 48.4426 57.5382 47.0438L47.0436 36.5567ZM141.443 47.0438C142.794 45.645 143.541 43.7716 143.525 41.8269C143.508 39.8823 142.728 38.0221 141.353 36.647C139.977 35.2719 138.117 34.4919 136.173 34.475C134.228 34.4581 132.355 35.2057 130.956 36.5567L120.469 47.0438C119.118 48.4426 118.37 50.3161 118.387 52.2607C118.404 54.2054 119.184 56.0655 120.559 57.4407C121.934 58.8158 123.794 59.5958 125.739 59.6127C127.683 59.6296 129.557 58.882 130.956 57.531L141.443 47.0438ZM88.9997 51.9166C79.1646 51.9166 69.7323 55.8236 62.7778 62.778C55.8233 69.7325 51.9163 79.1648 51.9163 88.9999C51.9163 98.835 55.8233 108.267 62.7778 115.222C69.7323 122.176 79.1646 126.083 88.9997 126.083C98.8348 126.083 108.267 122.176 115.222 115.222C122.176 108.267 126.083 98.835 126.083 88.9999C126.083 79.1648 122.176 69.7325 115.222 62.778C108.267 55.8236 98.8348 51.9166 88.9997 51.9166ZM22.2497 81.5833C20.2827 81.5833 18.3962 82.3646 17.0053 83.7555C15.6144 85.1464 14.833 87.0329 14.833 88.9999C14.833 90.9669 15.6144 92.8534 17.0053 94.2443C18.3962 95.6352 20.2827 96.4166 22.2497 96.4166H37.083C39.05 96.4166 40.9365 95.6352 42.3274 94.2443C43.7183 92.8534 44.4997 90.9669 44.4997 88.9999C44.4997 87.0329 43.7183 85.1464 42.3274 83.7555C40.9365 82.3646 39.05 81.5833 37.083 81.5833H22.2497ZM140.916 81.5833C138.949 81.5833 137.063 82.3646 135.672 83.7555C134.281 85.1464 133.5 87.0329 133.5 88.9999C133.5 90.9669 134.281 92.8534 135.672 94.2443C137.063 95.6352 138.949 96.4166 140.916 96.4166H155.75C157.717 96.4166 159.603 95.6352 160.994 94.2443C162.385 92.8534 163.166 90.9669 163.166 88.9999C163.166 87.0329 162.385 85.1464 160.994 83.7555C159.603 82.3646 157.717 81.5833 155.75 81.5833H140.916ZM57.5308 130.956C58.2391 130.272 58.8041 129.453 59.1928 128.549C59.5815 127.644 59.7861 126.671 59.7947 125.686C59.8033 124.701 59.6156 123.724 59.2427 122.813C58.8698 121.901 58.3191 121.073 57.6227 120.377C56.9263 119.681 56.0982 119.13 55.1868 118.757C54.2753 118.384 53.2986 118.196 52.3139 118.205C51.3291 118.213 50.3559 118.418 49.451 118.807C48.5461 119.195 47.7278 119.76 47.0436 120.469L36.5564 130.956C35.8481 131.64 35.283 132.459 34.8943 133.363C34.5056 134.268 34.301 135.241 34.2925 136.226C34.2839 137.211 34.4716 138.188 34.8445 139.099C35.2174 140.011 35.7681 140.839 36.4645 141.535C37.1609 142.231 37.989 142.782 38.9004 143.155C39.8119 143.528 40.7885 143.716 41.7733 143.707C42.7581 143.699 43.7313 143.494 44.6362 143.105C45.541 142.717 46.3594 142.152 47.0436 141.443L57.5308 130.956ZM130.956 120.469C129.557 119.118 127.683 118.37 125.739 118.387C123.794 118.404 121.934 119.184 120.559 120.559C119.184 121.934 118.404 123.794 118.387 125.739C118.37 127.684 119.118 129.557 120.469 130.956L130.956 141.443C132.355 142.794 134.228 143.542 136.173 143.525C138.117 143.508 139.977 142.728 141.353 141.353C142.728 139.978 143.508 138.118 143.525 136.173C143.541 134.228 142.794 132.355 141.443 130.956L130.956 120.469ZM96.4163 140.917C96.4163 138.95 95.6349 137.063 94.244 135.672C92.8532 134.281 90.9667 133.5 88.9997 133.5C87.0327 133.5 85.1462 134.281 83.7553 135.672C82.3644 137.063 81.583 138.95 81.583 140.917V155.75C81.583 157.717 82.3644 159.603 83.7553 160.994C85.1462 162.385 87.0327 163.167 88.9997 163.167C90.9667 163.167 92.8532 162.385 94.244 160.994C95.6349 159.603 96.4163 157.717 96.4163 155.75V140.917Z" fill="black"/>
</svg>
