<svg width="150" height="150" viewBox="0 0 150 150" fill="none" xmlns="http://www.w3.org/2000/svg">
<path d="M31.9231 5H118.077C125.217 5 132.065 7.83653 137.114 12.8856C142.163 17.9346 145 24.7826 145 31.9231V118.077C145 125.217 142.163 132.065 137.114 137.114C132.065 142.163 125.217 145 118.077 145H31.9231C24.7826 145 17.9346 142.163 12.8856 137.114C7.83653 132.065 5 125.217 5 118.077V31.9231C5 24.7826 7.83653 17.9346 12.8856 12.8856C17.9346 7.83653 24.7826 5 31.9231 5Z" stroke="#CAAA96" stroke-width="9" stroke-linecap="round" stroke-linejoin="round"/>
<path d="M99.1233 113.015C99.1233 119.262 103.84 124.194 109.462 124.162L114.34 124.119C119.962 124.086 124.56 119.262 124.56 112.994C124.56 106.748 119.962 101.525 114.329 101.525H109.472C103.84 101.525 99.2417 96.2908 99.2417 90.0447C99.2417 83.7985 103.84 78.8662 109.472 78.8662H114.34C119.962 78.8662 124.582 83.7985 124.582 90.0554M62.0771 113.005C62.0771 119.251 66.794 124.205 72.4156 124.162L77.4233 124.119C83.0556 124.086 87.5033 119.262 87.5033 113.015C87.5033 106.769 83.0986 101.535 77.4771 101.535H72.4156C66.794 101.535 62.1956 96.3124 62.1956 90.0554C62.1956 83.8093 66.794 78.8877 72.4263 78.8877H77.2833C82.9156 78.8877 87.6648 83.8093 87.6648 90.0554M25.5371 113.015C25.5371 119.262 30.254 124.345 35.8756 124.345H40.7433C46.3648 124.345 50.974 119.423 50.974 113.166M51.0817 90.217C51.0817 83.9708 46.3756 79.0385 40.7433 79.0385H35.8863C30.254 79.0385 25.5479 84.0785 25.5479 90.3462V113.155" stroke="#CAAA96" stroke-width="9" stroke-linecap="round" stroke-linejoin="round"/>
</svg>
