<svg width="100" height="100" viewBox="0 0 150 150" fill="none" xmlns="http://www.w3.org/2000/svg"class="text-primary">
<path d="M147.162 68.3123L81.6688 2.82483C79.853 1.01576 77.3944 0 74.8312 0C72.2681 0 69.8095 1.01576 67.9938 2.82483L54.425 16.4186L71.675 33.6686C73.7102 32.9791 75.8979 32.8743 77.9897 33.366C80.0814 33.8577 81.9933 34.9262 83.5082 36.4502C85.023 37.9741 86.0801 39.8924 86.5592 41.9871C87.0384 44.0818 86.9204 46.2689 86.2188 48.2998L102.831 64.9248C105.29 64.07 107.966 64.0754 110.421 64.9403C112.876 65.8052 114.965 67.4782 116.344 69.6853C117.724 71.8924 118.314 74.5028 118.016 77.0886C117.718 79.6745 116.551 82.0827 114.706 83.9186C113.64 84.9867 112.373 85.834 110.979 86.4122C109.585 86.9903 108.091 87.2879 106.581 87.2879C105.072 87.2879 103.577 86.9903 102.183 86.4122C100.789 85.834 99.5226 84.9867 98.4563 83.9186C96.8611 82.3143 95.7716 80.2772 95.3227 78.0598C94.8739 75.8423 95.0855 73.542 95.9313 71.4436L80.375 55.9686V96.7498C81.475 97.2873 82.5125 98.0186 83.425 98.9248C85.5624 101.089 86.761 104.008 86.761 107.05C86.761 110.092 85.5624 113.011 83.425 115.175C82.3547 116.246 81.0837 117.096 79.6847 117.676C78.2858 118.256 76.7862 118.554 75.2719 118.554C73.7575 118.554 72.258 118.256 70.859 117.676C69.4601 117.096 68.1891 116.246 67.1188 115.175C66.0503 114.11 65.2025 112.845 64.6241 111.451C64.0457 110.058 63.7479 108.565 63.7479 107.056C63.7479 105.548 64.0457 104.054 64.6241 102.661C65.2025 101.268 66.0503 100.002 67.1188 98.9373C68.2562 97.8123 69.5375 96.9623 70.9 96.3998V55.2186C69.497 54.645 68.2216 53.7989 67.1478 52.7291C66.0739 51.6594 65.2229 50.3873 64.644 48.9865C64.0651 47.5856 63.7697 46.0839 63.775 44.5682C63.7803 43.0524 64.0862 41.5528 64.675 40.1561L47.725 23.1248L2.8125 68.0061C-0.9375 71.7873 -0.9375 77.9061 2.8125 81.6873L68.3125 147.169C69.2093 148.066 70.2742 148.778 71.4463 149.264C72.6185 149.75 73.8749 150 75.1437 150C76.4126 150 77.669 149.75 78.8412 149.264C80.0133 148.778 81.0782 148.066 81.975 147.169L147.162 81.9811C148.062 81.0846 148.775 80.0194 149.262 78.8467C149.749 77.6739 150 76.4165 150 75.1467C150 73.8769 149.749 72.6195 149.262 71.4468C148.775 70.274 148.062 69.2088 147.162 68.3123Z" fill="currentcolor "/>
</svg>
