<svg width="150" height="132" viewBox="0 0 150 132" fill="none" xmlns="http://www.w3.org/2000/svg">
<g clip-path="url(#clip0_611_147)">
<path d="M37.5 5H112.5C125.484 5 135.938 15.4531 135.938 28.4375V103.437C135.938 116.422 125.484 126.875 112.5 126.875H37.5C34.4205 126.881 31.37 126.279 28.5236 125.103C25.6772 123.928 23.0911 122.202 20.9135 120.024C18.7359 117.846 17.0097 115.26 15.834 112.414C14.6584 109.568 14.0564 106.517 14.0625 103.437V28.4375C14.0625 15.4531 24.5157 5 37.5 5Z" stroke="currentCorlor" stroke-width="8" stroke-linecap="round" stroke-linejoin="round"/>
<path d="M42.1875 90.6641C42.1875 93.943 43.6691 97.0877 46.3063 99.4062C48.9435 101.725 52.5204 103.027 56.25 103.027C59.9796 103.027 63.5565 101.725 66.1937 99.4062C68.8309 97.0877 70.3125 93.943 70.3125 90.6641V61.8164M117.188 72.1191C117.188 66.432 112.153 61.8164 105.938 61.8164H100.312C94.0969 61.8164 89.0625 66.432 89.0625 72.1191C89.0625 77.8063 94.0969 82.4219 100.312 82.4219H105.938C112.153 82.4219 117.188 87.0375 117.188 92.7246C117.188 98.4117 112.153 103.027 105.938 103.027H100.312C94.0969 103.027 89.0625 98.4117 89.0625 92.7246" stroke="currentcolor" stroke-width="9" stroke-linecap="round" stroke-linejoin="round"/>
</g>
<defs>
<clipPath id="clip0_611_147">
<rect width="150" height="131.875" fill="white"/>
</clipPath>
</defs>
</svg>
