<svg width="150" height="72" viewBox="0 0 150 72" fill="none" xmlns="http://www.w3.org/2000/svg">
<path d="M30.033 23.9658H21.592L16.9832 47.6475H24.4772C29.448 47.6475 33.1519 46.711 35.5889 44.838C38.0174 42.9651 39.6568 39.8378 40.507 35.4563C41.3236 31.2515 40.9532 28.2842 39.3959 26.5543C37.8386 24.8244 34.7176 23.9616 30.033 23.9658ZM45.501 50.1855C43.1713 52.4205 40.3618 54.0999 37.3061 55.11C34.2967 56.0865 30.4666 56.5768 25.8157 56.581H15.2406L12.3175 71.6197H0L10.998 15.0386H34.6987C41.8286 15.0386 47.0288 16.9116 50.2992 20.6576C53.5737 24.3951 54.5586 29.6185 53.2539 36.3275C52.7558 38.9825 51.8349 41.5404 50.5265 43.9037C49.1996 46.2522 47.4988 48.3731 45.501 50.1855ZM81.5002 56.581L86.3615 31.5483C86.9171 28.6988 86.713 26.7585 85.7491 25.7273C84.7937 24.6877 82.746 24.1678 79.6062 24.1678H69.8393L63.5448 56.5937H51.303L62.301 0H74.5302L71.607 15.0449H82.4977C89.3583 15.0449 94.0871 16.2403 96.684 18.631C99.2809 21.0216 100.066 24.8939 99.0389 30.2477L93.925 56.581H81.5002ZM149.452 36.3275C148.959 38.9792 148.038 41.5361 146.724 43.9037C145.398 46.2522 143.703 48.3731 141.705 50.1855C139.369 52.4142 136.566 54.0999 133.504 55.11C130.495 56.0865 126.66 56.5768 122.001 56.581H111.451L108.522 71.626H96.1916L107.196 15.0449H130.884C138.014 15.0449 143.214 16.9179 146.484 20.6639C149.759 24.393 150.746 29.6121 149.445 36.3212M126.237 23.9658H117.802L113.187 47.6475H120.681C125.661 47.6475 129.364 46.711 131.793 44.838C134.222 42.9651 135.863 39.8378 136.718 35.4563C137.534 31.2515 137.162 28.2842 135.6 26.5543C134.039 24.8244 130.918 23.9616 126.237 23.9658Z" fill="#CAAA96"/>
</svg>
