<svg width="147" height="132" viewBox="0 0 147 132" fill="none" xmlns="http://www.w3.org/2000/svg">
<path d="M73.3594 78.8672C80.7376 78.8672 86.7188 72.886 86.7188 65.5078C86.7188 58.1296 80.7376 52.1484 73.3594 52.1484C65.9812 52.1484 60 58.1296 60 65.5078C60 72.886 65.9812 78.8672 73.3594 78.8672Z" fill="#CAAA96"/>
<path d="M124.102 43.4766C121.523 42.5391 118.828 41.6016 116.016 40.7813C116.719 37.9688 117.305 35.1562 117.773 32.4609C120.234 16.9922 117.539 6.09375 110.039 1.875C107.812 0.585937 105.352 0 102.539 0C94.3359 0 83.9062 6.09375 73.3594 16.2891C62.8125 6.09375 52.3828 0 44.1797 0C41.3672 0 38.9063 0.585937 36.6797 1.875C29.1797 6.21094 26.4844 17.1094 28.9453 32.4609C29.4141 35.1562 30 37.9688 30.7031 40.7813C27.8906 41.6016 25.1953 42.4219 22.6172 43.4766C7.96875 49.1016 0 56.8359 0 65.5078C0 74.1797 8.08594 81.9141 22.6172 87.5391C25.1953 88.4766 27.8906 89.4141 30.7031 90.2344C30 93.0469 29.4141 95.8594 28.9453 98.5547C26.4844 114.023 29.1797 124.922 36.6797 129.141C38.9063 130.43 41.3672 131.016 44.1797 131.016C52.5 131.016 62.9297 124.922 73.3594 114.727C83.9062 124.922 94.3359 131.016 102.539 131.016C105.352 131.016 107.812 130.43 110.039 129.141C117.539 124.805 120.234 113.906 117.773 98.5547C117.305 95.8594 116.719 93.0469 116.016 90.2344C118.828 89.4141 121.523 88.5938 124.102 87.5391C138.75 81.9141 146.719 74.1797 146.719 65.5078C146.719 56.8359 138.75 49.1016 124.102 43.4766ZM106.758 7.73437C111.562 10.5469 113.203 19.2188 111.211 31.5234C110.859 33.9844 110.273 36.5625 109.57 39.2578C103.477 37.8516 97.0312 36.9141 90.2344 36.3281C86.25 30.7031 82.1484 25.6641 78.0469 21.0938C86.7188 12.5391 95.5078 6.67969 102.656 6.67969C104.18 6.67969 105.586 7.03125 106.758 7.73437ZM93.6328 77.2266C91.5234 80.9766 89.0625 84.7266 86.4844 88.4766C82.1484 88.8281 77.8125 88.9453 73.3594 88.9453C68.7891 88.9453 64.4531 88.8281 60.2344 88.4766C57.6562 84.7266 55.3125 80.9766 53.2031 77.2266C50.9766 73.3594 48.8672 69.375 46.9922 65.5078C48.8672 61.6406 50.9766 57.6562 53.2031 53.7891C55.3125 50.0391 57.7734 46.2891 60.3516 42.5391C64.6875 42.1875 69.0234 42.0703 73.4766 42.0703C78.0469 42.0703 82.3828 42.1875 86.6016 42.5391C89.1797 46.2891 91.5234 50.0391 93.6328 53.7891C95.8594 57.6562 97.9688 61.6406 99.8438 65.5078C97.8516 69.375 95.8594 73.2422 93.6328 77.2266ZM103.359 73.3594C105.117 77.4609 106.523 81.4453 107.812 85.4297C103.828 86.3672 99.6094 87.0703 95.1562 87.6562C96.5625 85.4297 98.0859 83.0859 99.375 80.625C100.781 78.1641 102.07 75.7031 103.359 73.3594ZM73.3594 105.117C70.5469 102.07 67.8516 98.7891 65.2734 95.3906C67.9687 95.5078 70.6641 95.625 73.3594 95.625C76.0547 95.625 78.75 95.5078 81.4453 95.3906C78.8672 98.7891 76.1719 102.07 73.3594 105.117ZM51.5625 87.5391C47.1094 86.9531 42.8906 86.25 38.9062 85.3125C40.1953 81.4453 41.6016 77.3438 43.3594 73.2422C44.6484 75.5859 45.9375 78.0469 47.3437 80.3906C48.75 82.9688 50.1562 85.1953 51.5625 87.5391ZM43.3594 57.6562C41.6016 53.5547 40.1953 49.5703 38.9062 45.5859C42.8906 44.6484 47.1094 43.9453 51.5625 43.3594C50.1562 45.5859 48.6328 47.9297 47.3437 50.3906C45.9375 52.8516 44.6484 55.3125 43.3594 57.6562ZM73.3594 25.8984C76.1719 28.9453 78.8672 32.2266 81.4453 35.625C78.75 35.5078 76.0547 35.3906 73.3594 35.3906C70.6641 35.3906 67.9687 35.5078 65.2734 35.625C67.8516 32.2266 70.5469 28.9453 73.3594 25.8984ZM99.375 50.5078L95.1562 43.4766C99.6094 44.0625 103.828 44.7656 107.812 45.7031C106.523 49.5703 105.117 53.6719 103.359 57.7734C102.07 55.3125 100.781 52.8516 99.375 50.5078ZM35.5078 31.5234C33.5156 19.2188 35.1562 10.5469 39.9609 7.73437C41.1328 7.03125 42.5391 6.67969 44.0625 6.67969C51.0938 6.67969 59.8828 12.4219 68.6719 21.0938C64.5703 25.5469 60.4687 30.7031 56.4844 36.3281C49.6875 36.9141 43.2422 37.9688 37.1484 39.2578C36.4453 36.5625 35.9766 33.9844 35.5078 31.5234ZM6.5625 65.5078C6.5625 60 13.2422 54.1406 24.9609 49.8047C27.3047 48.8672 29.8828 48.0469 32.4609 47.3438C34.3359 53.2031 36.6797 59.4141 39.4922 65.625C36.6797 71.8359 34.2188 77.9297 32.4609 83.7891C16.2891 79.1016 6.5625 72.0703 6.5625 65.5078ZM39.9609 123.281C35.1562 120.469 33.5156 111.797 35.5078 99.4922C35.8594 97.0312 36.4453 94.4531 37.1484 91.7578C43.2422 93.1641 49.6875 94.1016 56.4844 94.6875C60.4687 100.312 64.5703 105.352 68.6719 109.922C60 118.477 51.2109 124.336 44.0625 124.336C42.5391 124.336 41.1328 123.984 39.9609 123.281ZM111.211 99.4922C113.203 111.797 111.562 120.469 106.758 123.281C105.586 123.984 104.18 124.336 102.656 124.336C95.625 124.336 86.8359 118.594 78.0469 109.922C82.1484 105.469 86.25 100.312 90.2344 94.6875C97.0312 94.1016 103.477 93.0469 109.57 91.7578C110.273 94.4531 110.742 97.0312 111.211 99.4922ZM121.758 81.2109C119.414 82.1484 116.836 82.9688 114.258 83.6719C112.383 77.8125 110.039 71.6016 107.227 65.3906C110.039 59.1797 112.5 53.0859 114.258 47.2266C130.43 51.9141 140.156 58.9453 140.156 65.5078C140.156 71.0156 133.359 76.875 121.758 81.2109Z" fill="#CAAA96"/>
</svg>
