<svg width="100" height="100" viewBox="0 0 150 87" fill="none" xmlns="http://www.w3.org/2000/svg" class="text-primary">
<path fill-rule="evenodd" clip-rule="evenodd" d="M126.52 7.03125C126.52 5.16645 125.779 3.37802 124.461 2.0594C123.142 0.740789 121.354 0 119.489 0C117.624 0 115.836 0.740789 114.517 2.0594C113.198 3.37802 112.458 5.16645 112.458 7.03125V67.9688C112.458 71.85 115.608 75 119.489 75H142.926C144.791 75 146.579 74.2592 147.898 72.9406C149.217 71.622 149.958 69.8336 149.958 67.9688C149.958 66.1039 149.217 64.3155 147.898 62.9969C146.579 61.6783 144.791 60.9375 142.926 60.9375H126.52V7.03125ZM103.083 37.5C103.083 49.875 100.673 59.1937 96.4357 65.4375L105.717 74.7188C106.388 75.3677 106.923 76.1438 107.292 77.0018C107.66 77.8598 107.853 78.7825 107.861 79.7161C107.868 80.6497 107.69 81.5755 107.336 82.4395C106.982 83.3034 106.46 84.0882 105.799 84.7481C105.139 85.408 104.354 85.9297 103.489 86.2828C102.625 86.6359 101.699 86.8134 100.765 86.8049C99.8318 86.7963 98.9093 86.6019 98.0516 86.233C97.1939 85.8641 96.4183 85.3281 95.77 84.6562L85.1575 74.0437C83.0638 74.6813 80.8356 75 78.4731 75C63.7075 75 53.8638 62.5031 53.8638 37.5C53.8638 12.4969 63.7075 0 78.4731 0C93.2388 0 103.083 12.4969 103.083 37.5ZM84.7356 57.6562C86.8169 54.6375 89.02 48.4688 89.02 37.5094C89.02 26.5594 86.8169 20.3906 84.7356 17.3625C83.095 14.9813 81.3044 14.0812 78.4731 14.0812C75.6419 14.0812 73.8513 14.9813 72.2106 17.3625C70.1294 20.3906 67.9263 26.5594 67.9263 37.5187C67.9263 48.4594 70.1294 54.6375 72.2106 57.6562C73.8513 60.0375 75.6419 60.9469 78.4731 60.9469C81.3044 60.9469 83.095 60.0375 84.7356 57.6562ZM23.9763 0.0187486C17.5169 0.0187486 11.9294 2.35313 8.02002 6.70313C4.2044 10.9688 2.5544 16.5 2.5544 22.05C2.5544 28.9125 5.61065 34.05 9.67002 37.5938C13.5138 40.95 18.1825 42.8531 21.9044 44.0063C25.6356 45.15 28.3169 46.0406 30.2481 47.4938C31.6263 48.5531 32.7794 49.9875 32.7794 53.3531C32.7794 56.0719 31.7575 57.7406 30.4075 58.875C28.5655 60.285 26.2951 61.0197 23.9763 60.9562C22.0825 60.9562 19.87 60.0844 17.8075 58.2094C15.8869 56.5057 14.5082 54.2762 13.8419 51.7969C13.3867 50.0227 12.2571 48.4962 10.6934 47.5422C9.12984 46.5882 7.25568 46.282 5.46976 46.6888C3.68384 47.0955 2.12715 48.1832 1.13093 49.7202C0.13472 51.2573 -0.222371 53.1224 0.135647 54.9187C1.32627 60.1406 4.38252 65.0344 8.3669 68.6344C12.3606 72.2531 17.7981 75.0187 23.9763 75.0187C29.395 75.0187 35.0107 73.3313 39.4169 69.675C43.9638 65.8781 46.8325 60.2438 46.8325 53.3625C46.8325 45.4594 43.5325 39.9281 38.7325 36.2906C34.6638 33.2062 29.7138 31.6969 26.4888 30.7031L26.0481 30.5625C23.1419 29.6719 20.62 28.4906 18.9231 27C18.1802 26.4112 17.5849 25.6571 17.1845 24.7978C16.7841 23.9385 16.5898 22.9976 16.6169 22.05C16.6169 19.2 17.4606 17.25 18.4919 16.0969C19.42 15.0656 21.0231 14.0812 23.9763 14.0812C26.995 14.0812 28.645 15.0094 29.7138 16.0125C30.9325 17.1656 31.8981 18.9469 32.5263 21.2625C33.0426 23.0227 34.2264 24.5115 35.825 25.4111C37.4237 26.3107 39.3106 26.55 41.0832 26.0778C42.8558 25.6056 44.3736 24.4593 45.3129 22.8836C46.2522 21.3079 46.5384 19.4276 46.1106 17.6437C45.0513 13.7063 43.0638 9.28125 39.37 5.80312C35.5356 2.175 30.3606 0.0187486 23.9763 0.0187486Z" fill="currentColor"/>
</svg>
