<svg width="100" height="100" viewBox="0 0 94 94" fill="none" xmlns="http://www.w3.org/2000/svg"  class="text-primary">
<path d="M46.9997 23.5C36.5422 23.5 30.0405 28.7092 27.4163 39.1667C31.333 33.9575 35.9155 31.9992 41.1247 33.2917C44.1013 34.0358 46.2555 36.19 48.6055 38.5792C52.4438 42.4958 56.7913 47 66.583 47C77.0405 47 83.5422 41.7908 86.1663 31.3333C82.2497 36.5425 77.6672 38.5008 72.458 37.2083C69.4813 36.4642 67.3663 34.31 64.9772 31.9208C61.1388 28.0042 56.7913 23.5 46.9997 23.5ZM27.4163 47C16.9588 47 10.4572 52.2092 7.83301 62.6667C11.7497 57.4575 16.3322 55.4992 21.5413 56.7917C24.518 57.5358 26.633 59.69 29.0222 62.0792C32.8605 65.9958 37.208 70.5 46.9997 70.5C57.4572 70.5 63.9588 65.2908 66.583 54.8333C62.6663 60.0425 58.0838 62.0008 52.8747 60.7083C49.898 59.9642 47.783 57.81 45.3938 55.4208C41.5555 51.5042 37.208 47 27.4163 47Z" fill="currentColor"/>
</svg>
